<mxfile host="app.diagrams.net" modified="2023-11-18T22:08:27.906Z" agent="Mozilla/5.0 (Windows NT 10.0; Win64; x64) AppleWebKit/537.36 (KHTML, like Gecko) Chrome/119.0.0.0 Safari/537.36" etag="uHk2f33Iz_6gs6_aeVZZ" version="22.1.3" type="google">
  <diagram id="C5RBs43oDa-KdzZeNtuy" name="Page-1">
    <mxGraphModel grid="1" page="1" gridSize="10" guides="1" tooltips="1" connect="1" arrows="1" fold="1" pageScale="1" pageWidth="827" pageHeight="1169" background="#ffffff" math="0" shadow="0">
      <root>
        <mxCell id="WIyWlLk6GJQsqaUBKTNV-0" />
        <mxCell id="WIyWlLk6GJQsqaUBKTNV-1" parent="WIyWlLk6GJQsqaUBKTNV-0" />
        <mxCell id="pZX7AurCq85WZI0tsNrJ-284" value="" style="edgeStyle=orthogonalEdgeStyle;rounded=0;orthogonalLoop=1;jettySize=auto;html=1;dashed=1;endArrow=none;endFill=0;" edge="1" parent="WIyWlLk6GJQsqaUBKTNV-1" source="pZX7AurCq85WZI0tsNrJ-105" target="pZX7AurCq85WZI0tsNrJ-283">
          <mxGeometry relative="1" as="geometry" />
        </mxCell>
        <mxCell id="pZX7AurCq85WZI0tsNrJ-105" value="Room_Deposit" style="swimlane;fontStyle=0;align=center;verticalAlign=top;childLayout=stackLayout;horizontal=1;startSize=26;horizontalStack=0;resizeParent=1;resizeLast=0;collapsible=1;marginBottom=0;rounded=0;shadow=0;strokeWidth=1;fillColor=#dae8fc;strokeColor=#6c8ebf;" vertex="1" parent="WIyWlLk6GJQsqaUBKTNV-1">
          <mxGeometry x="430" y="490" width="160" height="138" as="geometry">
            <mxRectangle x="130" y="380" width="160" height="26" as="alternateBounds" />
          </mxGeometry>
        </mxCell>
        <mxCell id="pZX7AurCq85WZI0tsNrJ-106" value="# id : Int ( NOT NULL )" style="text;align=left;verticalAlign=top;spacingLeft=4;spacingRight=4;overflow=hidden;rotatable=0;points=[[0,0.5],[1,0.5]];portConstraint=eastwest;" vertex="1" parent="pZX7AurCq85WZI0tsNrJ-105">
          <mxGeometry y="26" width="160" height="26" as="geometry" />
        </mxCell>
        <mxCell id="pZX7AurCq85WZI0tsNrJ-107" value="amount : Float" style="text;align=left;verticalAlign=top;spacingLeft=4;spacingRight=4;overflow=hidden;rotatable=0;points=[[0,0.5],[1,0.5]];portConstraint=eastwest;rounded=0;shadow=0;html=0;" vertex="1" parent="pZX7AurCq85WZI0tsNrJ-105">
          <mxGeometry y="52" width="160" height="26" as="geometry" />
        </mxCell>
        <mxCell id="pZX7AurCq85WZI0tsNrJ-108" value="" style="line;html=1;strokeWidth=1;align=left;verticalAlign=middle;spacingTop=-1;spacingLeft=3;spacingRight=3;rotatable=0;labelPosition=right;points=[];portConstraint=eastwest;" vertex="1" parent="pZX7AurCq85WZI0tsNrJ-105">
          <mxGeometry y="78" width="160" height="8" as="geometry" />
        </mxCell>
        <mxCell id="pZX7AurCq85WZI0tsNrJ-109" value="pay()" style="text;align=left;verticalAlign=top;spacingLeft=4;spacingRight=4;overflow=hidden;rotatable=0;points=[[0,0.5],[1,0.5]];portConstraint=eastwest;fontStyle=4" vertex="1" parent="pZX7AurCq85WZI0tsNrJ-105">
          <mxGeometry y="86" width="160" height="26" as="geometry" />
        </mxCell>
        <mxCell id="pZX7AurCq85WZI0tsNrJ-110" value="cancel()" style="text;align=left;verticalAlign=top;spacingLeft=4;spacingRight=4;overflow=hidden;rotatable=0;points=[[0,0.5],[1,0.5]];portConstraint=eastwest;" vertex="1" parent="pZX7AurCq85WZI0tsNrJ-105">
          <mxGeometry y="112" width="160" height="26" as="geometry" />
        </mxCell>
        <mxCell id="pZX7AurCq85WZI0tsNrJ-111" value="Reservation_Schedule_Available" style="swimlane;fontStyle=0;align=center;verticalAlign=top;childLayout=stackLayout;horizontal=1;startSize=26;horizontalStack=0;resizeParent=1;resizeLast=0;collapsible=1;marginBottom=0;rounded=0;shadow=0;strokeWidth=1;fillColor=#dae8fc;strokeColor=#6c8ebf;" vertex="1" parent="WIyWlLk6GJQsqaUBKTNV-1">
          <mxGeometry x="430" y="700" width="200" height="190" as="geometry">
            <mxRectangle x="130" y="380" width="160" height="26" as="alternateBounds" />
          </mxGeometry>
        </mxCell>
        <mxCell id="pZX7AurCq85WZI0tsNrJ-112" value="# id : Int ( NOT NULL)" style="text;align=left;verticalAlign=top;spacingLeft=4;spacingRight=4;overflow=hidden;rotatable=0;points=[[0,0.5],[1,0.5]];portConstraint=eastwest;" vertex="1" parent="pZX7AurCq85WZI0tsNrJ-111">
          <mxGeometry y="26" width="200" height="26" as="geometry" />
        </mxCell>
        <mxCell id="pZX7AurCq85WZI0tsNrJ-113" value="start_time : Datetime" style="text;align=left;verticalAlign=top;spacingLeft=4;spacingRight=4;overflow=hidden;rotatable=0;points=[[0,0.5],[1,0.5]];portConstraint=eastwest;rounded=0;shadow=0;html=0;" vertex="1" parent="pZX7AurCq85WZI0tsNrJ-111">
          <mxGeometry y="52" width="200" height="26" as="geometry" />
        </mxCell>
        <mxCell id="pZX7AurCq85WZI0tsNrJ-208" value="end_time : Datetime" style="text;align=left;verticalAlign=top;spacingLeft=4;spacingRight=4;overflow=hidden;rotatable=0;points=[[0,0.5],[1,0.5]];portConstraint=eastwest;rounded=0;shadow=0;html=0;" vertex="1" parent="pZX7AurCq85WZI0tsNrJ-111">
          <mxGeometry y="78" width="200" height="26" as="geometry" />
        </mxCell>
        <mxCell id="pZX7AurCq85WZI0tsNrJ-209" value="additionnal_hour : Int" style="text;align=left;verticalAlign=top;spacingLeft=4;spacingRight=4;overflow=hidden;rotatable=0;points=[[0,0.5],[1,0.5]];portConstraint=eastwest;rounded=0;shadow=0;html=0;" vertex="1" parent="pZX7AurCq85WZI0tsNrJ-111">
          <mxGeometry y="104" width="200" height="26" as="geometry" />
        </mxCell>
        <mxCell id="pZX7AurCq85WZI0tsNrJ-114" value="" style="line;html=1;strokeWidth=1;align=left;verticalAlign=middle;spacingTop=-1;spacingLeft=3;spacingRight=3;rotatable=0;labelPosition=right;points=[];portConstraint=eastwest;" vertex="1" parent="pZX7AurCq85WZI0tsNrJ-111">
          <mxGeometry y="130" width="200" height="8" as="geometry" />
        </mxCell>
        <mxCell id="pZX7AurCq85WZI0tsNrJ-115" value="set()" style="text;align=left;verticalAlign=top;spacingLeft=4;spacingRight=4;overflow=hidden;rotatable=0;points=[[0,0.5],[1,0.5]];portConstraint=eastwest;fontStyle=4" vertex="1" parent="pZX7AurCq85WZI0tsNrJ-111">
          <mxGeometry y="138" width="200" height="26" as="geometry" />
        </mxCell>
        <mxCell id="pZX7AurCq85WZI0tsNrJ-116" value="update()" style="text;align=left;verticalAlign=top;spacingLeft=4;spacingRight=4;overflow=hidden;rotatable=0;points=[[0,0.5],[1,0.5]];portConstraint=eastwest;" vertex="1" parent="pZX7AurCq85WZI0tsNrJ-111">
          <mxGeometry y="164" width="200" height="26" as="geometry" />
        </mxCell>
        <mxCell id="pZX7AurCq85WZI0tsNrJ-117" value="Client" style="swimlane;fontStyle=0;align=center;verticalAlign=top;childLayout=stackLayout;horizontal=1;startSize=26;horizontalStack=0;resizeParent=1;resizeLast=0;collapsible=1;marginBottom=0;rounded=0;shadow=0;strokeWidth=1;fillColor=#dae8fc;strokeColor=#6c8ebf;" vertex="1" parent="WIyWlLk6GJQsqaUBKTNV-1">
          <mxGeometry x="1214" y="855" width="160" height="220" as="geometry">
            <mxRectangle x="130" y="380" width="160" height="26" as="alternateBounds" />
          </mxGeometry>
        </mxCell>
        <mxCell id="pZX7AurCq85WZI0tsNrJ-118" value="# id : Int (NOT NULL)" style="text;align=left;verticalAlign=top;spacingLeft=4;spacingRight=4;overflow=hidden;rotatable=0;points=[[0,0.5],[1,0.5]];portConstraint=eastwest;" vertex="1" parent="pZX7AurCq85WZI0tsNrJ-117">
          <mxGeometry y="26" width="160" height="26" as="geometry" />
        </mxCell>
        <mxCell id="pZX7AurCq85WZI0tsNrJ-119" value="name : Varchar (50)" style="text;align=left;verticalAlign=top;spacingLeft=4;spacingRight=4;overflow=hidden;rotatable=0;points=[[0,0.5],[1,0.5]];portConstraint=eastwest;rounded=0;shadow=0;html=0;" vertex="1" parent="pZX7AurCq85WZI0tsNrJ-117">
          <mxGeometry y="52" width="160" height="26" as="geometry" />
        </mxCell>
        <mxCell id="pZX7AurCq85WZI0tsNrJ-193" value="phone : Varchar(25)" style="text;align=left;verticalAlign=top;spacingLeft=4;spacingRight=4;overflow=hidden;rotatable=0;points=[[0,0.5],[1,0.5]];portConstraint=eastwest;rounded=0;shadow=0;html=0;" vertex="1" parent="pZX7AurCq85WZI0tsNrJ-117">
          <mxGeometry y="78" width="160" height="26" as="geometry" />
        </mxCell>
        <mxCell id="pZX7AurCq85WZI0tsNrJ-194" value="email : Varchar (25)" style="text;align=left;verticalAlign=top;spacingLeft=4;spacingRight=4;overflow=hidden;rotatable=0;points=[[0,0.5],[1,0.5]];portConstraint=eastwest;rounded=0;shadow=0;html=0;" vertex="1" parent="pZX7AurCq85WZI0tsNrJ-117">
          <mxGeometry y="104" width="160" height="26" as="geometry" />
        </mxCell>
        <mxCell id="pZX7AurCq85WZI0tsNrJ-120" value="" style="line;html=1;strokeWidth=1;align=left;verticalAlign=middle;spacingTop=-1;spacingLeft=3;spacingRight=3;rotatable=0;labelPosition=right;points=[];portConstraint=eastwest;" vertex="1" parent="pZX7AurCq85WZI0tsNrJ-117">
          <mxGeometry y="130" width="160" height="8" as="geometry" />
        </mxCell>
        <mxCell id="pZX7AurCq85WZI0tsNrJ-121" value="add()" style="text;align=left;verticalAlign=top;spacingLeft=4;spacingRight=4;overflow=hidden;rotatable=0;points=[[0,0.5],[1,0.5]];portConstraint=eastwest;fontStyle=4" vertex="1" parent="pZX7AurCq85WZI0tsNrJ-117">
          <mxGeometry y="138" width="160" height="26" as="geometry" />
        </mxCell>
        <mxCell id="pZX7AurCq85WZI0tsNrJ-122" value="update()" style="text;align=left;verticalAlign=top;spacingLeft=4;spacingRight=4;overflow=hidden;rotatable=0;points=[[0,0.5],[1,0.5]];portConstraint=eastwest;" vertex="1" parent="pZX7AurCq85WZI0tsNrJ-117">
          <mxGeometry y="164" width="160" height="26" as="geometry" />
        </mxCell>
        <mxCell id="pZX7AurCq85WZI0tsNrJ-197" value="delete()" style="text;align=left;verticalAlign=top;spacingLeft=4;spacingRight=4;overflow=hidden;rotatable=0;points=[[0,0.5],[1,0.5]];portConstraint=eastwest;" vertex="1" parent="pZX7AurCq85WZI0tsNrJ-117">
          <mxGeometry y="190" width="160" height="26" as="geometry" />
        </mxCell>
        <mxCell id="pZX7AurCq85WZI0tsNrJ-289" value="" style="edgeStyle=orthogonalEdgeStyle;rounded=0;orthogonalLoop=1;jettySize=auto;html=1;entryX=0.016;entryY=0.904;entryDx=0;entryDy=0;entryPerimeter=0;exitX=1.004;exitY=0.218;exitDx=0;exitDy=0;exitPerimeter=0;endArrow=none;endFill=0;" edge="1" parent="WIyWlLk6GJQsqaUBKTNV-1" source="pZX7AurCq85WZI0tsNrJ-186" target="pZX7AurCq85WZI0tsNrJ-131">
          <mxGeometry relative="1" as="geometry">
            <mxPoint x="960" y="760.0000000000002" as="sourcePoint" />
            <mxPoint x="1070" y="800" as="targetPoint" />
          </mxGeometry>
        </mxCell>
        <mxCell id="pZX7AurCq85WZI0tsNrJ-320" value="Concerne" style="edgeLabel;html=1;align=center;verticalAlign=middle;resizable=0;points=[];" connectable="0" vertex="1" parent="pZX7AurCq85WZI0tsNrJ-289">
          <mxGeometry x="0.1964" y="2" relative="1" as="geometry">
            <mxPoint y="-10" as="offset" />
          </mxGeometry>
        </mxCell>
        <mxCell id="pZX7AurCq85WZI0tsNrJ-123" value="Reservation" style="swimlane;fontStyle=0;align=center;verticalAlign=top;childLayout=stackLayout;horizontal=1;startSize=26;horizontalStack=0;resizeParent=1;resizeLast=0;collapsible=1;marginBottom=0;rounded=0;shadow=0;strokeWidth=1;fillColor=#dae8fc;strokeColor=#6c8ebf;" vertex="1" parent="WIyWlLk6GJQsqaUBKTNV-1">
          <mxGeometry x="770" y="596" width="190" height="476" as="geometry">
            <mxRectangle x="130" y="380" width="160" height="26" as="alternateBounds" />
          </mxGeometry>
        </mxCell>
        <mxCell id="pZX7AurCq85WZI0tsNrJ-124" value="id : Int (NOT NULL)" style="text;align=left;verticalAlign=top;spacingLeft=4;spacingRight=4;overflow=hidden;rotatable=0;points=[[0,0.5],[1,0.5]];portConstraint=eastwest;" vertex="1" parent="pZX7AurCq85WZI0tsNrJ-123">
          <mxGeometry y="26" width="190" height="26" as="geometry" />
        </mxCell>
        <mxCell id="pZX7AurCq85WZI0tsNrJ-183" value="wording : varchar (50)" style="text;align=left;verticalAlign=top;spacingLeft=4;spacingRight=4;overflow=hidden;rotatable=0;points=[[0,0.5],[1,0.5]];portConstraint=eastwest;" vertex="1" parent="pZX7AurCq85WZI0tsNrJ-123">
          <mxGeometry y="52" width="190" height="26" as="geometry" />
        </mxCell>
        <mxCell id="pZX7AurCq85WZI0tsNrJ-191" value="details : Text" style="text;align=left;verticalAlign=top;spacingLeft=4;spacingRight=4;overflow=hidden;rotatable=0;points=[[0,0.5],[1,0.5]];portConstraint=eastwest;" vertex="1" parent="pZX7AurCq85WZI0tsNrJ-123">
          <mxGeometry y="78" width="190" height="26" as="geometry" />
        </mxCell>
        <mxCell id="pZX7AurCq85WZI0tsNrJ-184" value="date_reservation : timestamp" style="text;align=left;verticalAlign=top;spacingLeft=4;spacingRight=4;overflow=hidden;rotatable=0;points=[[0,0.5],[1,0.5]];portConstraint=eastwest;" vertex="1" parent="pZX7AurCq85WZI0tsNrJ-123">
          <mxGeometry y="104" width="190" height="26" as="geometry" />
        </mxCell>
        <mxCell id="pZX7AurCq85WZI0tsNrJ-196" value="number_participant : Int" style="text;align=left;verticalAlign=top;spacingLeft=4;spacingRight=4;overflow=hidden;rotatable=0;points=[[0,0.5],[1,0.5]];portConstraint=eastwest;" vertex="1" parent="pZX7AurCq85WZI0tsNrJ-123">
          <mxGeometry y="130" width="190" height="26" as="geometry" />
        </mxCell>
        <mxCell id="pZX7AurCq85WZI0tsNrJ-185" value="\ additional_place : int" style="text;align=left;verticalAlign=top;spacingLeft=4;spacingRight=4;overflow=hidden;rotatable=0;points=[[0,0.5],[1,0.5]];portConstraint=eastwest;" vertex="1" parent="pZX7AurCq85WZI0tsNrJ-123">
          <mxGeometry y="156" width="190" height="26" as="geometry" />
        </mxCell>
        <mxCell id="pZX7AurCq85WZI0tsNrJ-186" value="\ is_accepted : Bool" style="text;align=left;verticalAlign=top;spacingLeft=4;spacingRight=4;overflow=hidden;rotatable=0;points=[[0,0.5],[1,0.5]];portConstraint=eastwest;" vertex="1" parent="pZX7AurCq85WZI0tsNrJ-123">
          <mxGeometry y="182" width="190" height="26" as="geometry" />
        </mxCell>
        <mxCell id="pZX7AurCq85WZI0tsNrJ-187" value="\ is_valided : Bool" style="text;align=left;verticalAlign=top;spacingLeft=4;spacingRight=4;overflow=hidden;rotatable=0;points=[[0,0.5],[1,0.5]];portConstraint=eastwest;" vertex="1" parent="pZX7AurCq85WZI0tsNrJ-123">
          <mxGeometry y="208" width="190" height="26" as="geometry" />
        </mxCell>
        <mxCell id="pZX7AurCq85WZI0tsNrJ-188" value="\ is_confirmed : Bool" style="text;align=left;verticalAlign=top;spacingLeft=4;spacingRight=4;overflow=hidden;rotatable=0;points=[[0,0.5],[1,0.5]];portConstraint=eastwest;" vertex="1" parent="pZX7AurCq85WZI0tsNrJ-123">
          <mxGeometry y="234" width="190" height="26" as="geometry" />
        </mxCell>
        <mxCell id="pZX7AurCq85WZI0tsNrJ-190" value="theoretical_end_time : datetime" style="text;align=left;verticalAlign=top;spacingLeft=4;spacingRight=4;overflow=hidden;rotatable=0;points=[[0,0.5],[1,0.5]];portConstraint=eastwest;" vertex="1" parent="pZX7AurCq85WZI0tsNrJ-123">
          <mxGeometry y="260" width="190" height="26" as="geometry" />
        </mxCell>
        <mxCell id="pZX7AurCq85WZI0tsNrJ-189" value="theoretical_start_time : datetime" style="text;align=left;verticalAlign=top;spacingLeft=4;spacingRight=4;overflow=hidden;rotatable=0;points=[[0,0.5],[1,0.5]];portConstraint=eastwest;" vertex="1" parent="pZX7AurCq85WZI0tsNrJ-123">
          <mxGeometry y="286" width="190" height="26" as="geometry" />
        </mxCell>
        <mxCell id="pZX7AurCq85WZI0tsNrJ-276" value="additional_information : Text" style="text;align=left;verticalAlign=top;spacingLeft=4;spacingRight=4;overflow=hidden;rotatable=0;points=[[0,0.5],[1,0.5]];portConstraint=eastwest;" vertex="1" parent="pZX7AurCq85WZI0tsNrJ-123">
          <mxGeometry y="312" width="190" height="26" as="geometry" />
        </mxCell>
        <mxCell id="pZX7AurCq85WZI0tsNrJ-277" value="placed : Bool" style="text;align=left;verticalAlign=top;spacingLeft=4;spacingRight=4;overflow=hidden;rotatable=0;points=[[0,0.5],[1,0.5]];portConstraint=eastwest;" vertex="1" parent="pZX7AurCq85WZI0tsNrJ-123">
          <mxGeometry y="338" width="190" height="26" as="geometry" />
        </mxCell>
        <mxCell id="pZX7AurCq85WZI0tsNrJ-278" value="finished : Bool" style="text;align=left;verticalAlign=top;spacingLeft=4;spacingRight=4;overflow=hidden;rotatable=0;points=[[0,0.5],[1,0.5]];portConstraint=eastwest;" vertex="1" parent="pZX7AurCq85WZI0tsNrJ-123">
          <mxGeometry y="364" width="190" height="26" as="geometry" />
        </mxCell>
        <mxCell id="pZX7AurCq85WZI0tsNrJ-126" value="" style="line;html=1;strokeWidth=1;align=left;verticalAlign=middle;spacingTop=-1;spacingLeft=3;spacingRight=3;rotatable=0;labelPosition=right;points=[];portConstraint=eastwest;" vertex="1" parent="pZX7AurCq85WZI0tsNrJ-123">
          <mxGeometry y="390" width="190" height="8" as="geometry" />
        </mxCell>
        <mxCell id="pZX7AurCq85WZI0tsNrJ-127" value="toConfirm()" style="text;align=left;verticalAlign=top;spacingLeft=4;spacingRight=4;overflow=hidden;rotatable=0;points=[[0,0.5],[1,0.5]];portConstraint=eastwest;fontStyle=0" vertex="1" parent="pZX7AurCq85WZI0tsNrJ-123">
          <mxGeometry y="398" width="190" height="26" as="geometry" />
        </mxCell>
        <mxCell id="pZX7AurCq85WZI0tsNrJ-128" value="toValidate()" style="text;align=left;verticalAlign=top;spacingLeft=4;spacingRight=4;overflow=hidden;rotatable=0;points=[[0,0.5],[1,0.5]];portConstraint=eastwest;" vertex="1" parent="pZX7AurCq85WZI0tsNrJ-123">
          <mxGeometry y="424" width="190" height="26" as="geometry" />
        </mxCell>
        <mxCell id="pZX7AurCq85WZI0tsNrJ-192" value="toCancel()" style="text;align=left;verticalAlign=top;spacingLeft=4;spacingRight=4;overflow=hidden;rotatable=0;points=[[0,0.5],[1,0.5]];portConstraint=eastwest;" vertex="1" parent="pZX7AurCq85WZI0tsNrJ-123">
          <mxGeometry y="450" width="190" height="26" as="geometry" />
        </mxCell>
        <mxCell id="pZX7AurCq85WZI0tsNrJ-179" value="" style="rounded=0;orthogonalLoop=1;jettySize=auto;html=1;endArrow=block;endFill=0;entryX=0.5;entryY=1.077;entryDx=0;entryDy=0;entryPerimeter=0;" edge="1" parent="WIyWlLk6GJQsqaUBKTNV-1" source="pZX7AurCq85WZI0tsNrJ-129" target="pZX7AurCq85WZI0tsNrJ-173">
          <mxGeometry relative="1" as="geometry">
            <mxPoint x="1290" y="597" as="targetPoint" />
          </mxGeometry>
        </mxCell>
        <mxCell id="pZX7AurCq85WZI0tsNrJ-129" value="Game" style="swimlane;fontStyle=0;align=center;verticalAlign=top;childLayout=stackLayout;horizontal=1;startSize=26;horizontalStack=0;resizeParent=1;resizeLast=0;collapsible=1;marginBottom=0;rounded=0;shadow=0;strokeWidth=1;fillColor=#dae8fc;strokeColor=#6c8ebf;" vertex="1" parent="WIyWlLk6GJQsqaUBKTNV-1">
          <mxGeometry x="1210" y="650" width="160" height="164" as="geometry">
            <mxRectangle x="130" y="380" width="160" height="26" as="alternateBounds" />
          </mxGeometry>
        </mxCell>
        <mxCell id="pZX7AurCq85WZI0tsNrJ-130" value="# id : Int (NOT NULL)" style="text;align=left;verticalAlign=top;spacingLeft=4;spacingRight=4;overflow=hidden;rotatable=0;points=[[0,0.5],[1,0.5]];portConstraint=eastwest;" vertex="1" parent="pZX7AurCq85WZI0tsNrJ-129">
          <mxGeometry y="26" width="160" height="26" as="geometry" />
        </mxCell>
        <mxCell id="pZX7AurCq85WZI0tsNrJ-131" value="name : Varchar (50)" style="text;align=left;verticalAlign=top;spacingLeft=4;spacingRight=4;overflow=hidden;rotatable=0;points=[[0,0.5],[1,0.5]];portConstraint=eastwest;rounded=0;shadow=0;html=0;" vertex="1" parent="pZX7AurCq85WZI0tsNrJ-129">
          <mxGeometry y="52" width="160" height="26" as="geometry" />
        </mxCell>
        <mxCell id="pZX7AurCq85WZI0tsNrJ-132" value="" style="line;html=1;strokeWidth=1;align=left;verticalAlign=middle;spacingTop=-1;spacingLeft=3;spacingRight=3;rotatable=0;labelPosition=right;points=[];portConstraint=eastwest;" vertex="1" parent="pZX7AurCq85WZI0tsNrJ-129">
          <mxGeometry y="78" width="160" height="8" as="geometry" />
        </mxCell>
        <mxCell id="pZX7AurCq85WZI0tsNrJ-133" value="add()" style="text;align=left;verticalAlign=top;spacingLeft=4;spacingRight=4;overflow=hidden;rotatable=0;points=[[0,0.5],[1,0.5]];portConstraint=eastwest;fontStyle=4" vertex="1" parent="pZX7AurCq85WZI0tsNrJ-129">
          <mxGeometry y="86" width="160" height="26" as="geometry" />
        </mxCell>
        <mxCell id="pZX7AurCq85WZI0tsNrJ-134" value="update()" style="text;align=left;verticalAlign=top;spacingLeft=4;spacingRight=4;overflow=hidden;rotatable=0;points=[[0,0.5],[1,0.5]];portConstraint=eastwest;" vertex="1" parent="pZX7AurCq85WZI0tsNrJ-129">
          <mxGeometry y="112" width="160" height="26" as="geometry" />
        </mxCell>
        <mxCell id="pZX7AurCq85WZI0tsNrJ-174" value="delete()" style="text;align=left;verticalAlign=top;spacingLeft=4;spacingRight=4;overflow=hidden;rotatable=0;points=[[0,0.5],[1,0.5]];portConstraint=eastwest;" vertex="1" parent="pZX7AurCq85WZI0tsNrJ-129">
          <mxGeometry y="138" width="160" height="26" as="geometry" />
        </mxCell>
        <mxCell id="pZX7AurCq85WZI0tsNrJ-135" value="Category" style="swimlane;fontStyle=0;align=center;verticalAlign=top;childLayout=stackLayout;horizontal=1;startSize=26;horizontalStack=0;resizeParent=1;resizeLast=0;collapsible=1;marginBottom=0;rounded=0;shadow=0;strokeWidth=1;fillColor=#dae8fc;strokeColor=#6c8ebf;" vertex="1" parent="WIyWlLk6GJQsqaUBKTNV-1">
          <mxGeometry x="1210" y="412" width="160" height="164" as="geometry">
            <mxRectangle x="130" y="380" width="160" height="26" as="alternateBounds" />
          </mxGeometry>
        </mxCell>
        <mxCell id="pZX7AurCq85WZI0tsNrJ-136" value="# id : Int (NOT NULL)" style="text;align=left;verticalAlign=top;spacingLeft=4;spacingRight=4;overflow=hidden;rotatable=0;points=[[0,0.5],[1,0.5]];portConstraint=eastwest;" vertex="1" parent="pZX7AurCq85WZI0tsNrJ-135">
          <mxGeometry y="26" width="160" height="26" as="geometry" />
        </mxCell>
        <mxCell id="pZX7AurCq85WZI0tsNrJ-137" value="name : Varchar (50)" style="text;align=left;verticalAlign=top;spacingLeft=4;spacingRight=4;overflow=hidden;rotatable=0;points=[[0,0.5],[1,0.5]];portConstraint=eastwest;rounded=0;shadow=0;html=0;" vertex="1" parent="pZX7AurCq85WZI0tsNrJ-135">
          <mxGeometry y="52" width="160" height="26" as="geometry" />
        </mxCell>
        <mxCell id="pZX7AurCq85WZI0tsNrJ-138" value="" style="line;html=1;strokeWidth=1;align=left;verticalAlign=middle;spacingTop=-1;spacingLeft=3;spacingRight=3;rotatable=0;labelPosition=right;points=[];portConstraint=eastwest;" vertex="1" parent="pZX7AurCq85WZI0tsNrJ-135">
          <mxGeometry y="78" width="160" height="8" as="geometry" />
        </mxCell>
        <mxCell id="pZX7AurCq85WZI0tsNrJ-140" value="add()" style="text;align=left;verticalAlign=top;spacingLeft=4;spacingRight=4;overflow=hidden;rotatable=0;points=[[0,0.5],[1,0.5]];portConstraint=eastwest;" vertex="1" parent="pZX7AurCq85WZI0tsNrJ-135">
          <mxGeometry y="86" width="160" height="26" as="geometry" />
        </mxCell>
        <mxCell id="pZX7AurCq85WZI0tsNrJ-172" value="update()" style="text;align=left;verticalAlign=top;spacingLeft=4;spacingRight=4;overflow=hidden;rotatable=0;points=[[0,0.5],[1,0.5]];portConstraint=eastwest;" vertex="1" parent="pZX7AurCq85WZI0tsNrJ-135">
          <mxGeometry y="112" width="160" height="26" as="geometry" />
        </mxCell>
        <mxCell id="pZX7AurCq85WZI0tsNrJ-173" value="delete()" style="text;align=left;verticalAlign=top;spacingLeft=4;spacingRight=4;overflow=hidden;rotatable=0;points=[[0,0.5],[1,0.5]];portConstraint=eastwest;" vertex="1" parent="pZX7AurCq85WZI0tsNrJ-135">
          <mxGeometry y="138" width="160" height="26" as="geometry" />
        </mxCell>
        <mxCell id="pZX7AurCq85WZI0tsNrJ-287" value="" style="edgeStyle=orthogonalEdgeStyle;rounded=0;orthogonalLoop=1;jettySize=auto;html=1;dashed=1;" edge="1" parent="WIyWlLk6GJQsqaUBKTNV-1" source="pZX7AurCq85WZI0tsNrJ-141" target="pZX7AurCq85WZI0tsNrJ-286">
          <mxGeometry relative="1" as="geometry" />
        </mxCell>
        <mxCell id="pZX7AurCq85WZI0tsNrJ-141" value="Salle_Table" style="swimlane;fontStyle=0;align=center;verticalAlign=top;childLayout=stackLayout;horizontal=1;startSize=26;horizontalStack=0;resizeParent=1;resizeLast=0;collapsible=1;marginBottom=0;rounded=0;shadow=0;strokeWidth=1;fillColor=#dae8fc;strokeColor=#6c8ebf;" vertex="1" parent="WIyWlLk6GJQsqaUBKTNV-1">
          <mxGeometry x="780" y="380" width="160" height="170" as="geometry">
            <mxRectangle x="130" y="380" width="160" height="26" as="alternateBounds" />
          </mxGeometry>
        </mxCell>
        <mxCell id="pZX7AurCq85WZI0tsNrJ-142" value="# id : Int (NOT NULL)" style="text;align=left;verticalAlign=top;spacingLeft=4;spacingRight=4;overflow=hidden;rotatable=0;points=[[0,0.5],[1,0.5]];portConstraint=eastwest;fontStyle=4" vertex="1" parent="pZX7AurCq85WZI0tsNrJ-141">
          <mxGeometry y="26" width="160" height="26" as="geometry" />
        </mxCell>
        <mxCell id="pZX7AurCq85WZI0tsNrJ-166" value="\number_place" style="text;align=left;verticalAlign=top;spacingLeft=4;spacingRight=4;overflow=hidden;rotatable=0;points=[[0,0.5],[1,0.5]];portConstraint=eastwest;" vertex="1" parent="pZX7AurCq85WZI0tsNrJ-141">
          <mxGeometry y="52" width="160" height="26" as="geometry" />
        </mxCell>
        <mxCell id="pZX7AurCq85WZI0tsNrJ-167" value="\ room_capacity" style="text;align=left;verticalAlign=top;spacingLeft=4;spacingRight=4;overflow=hidden;rotatable=0;points=[[0,0.5],[1,0.5]];portConstraint=eastwest;" vertex="1" parent="pZX7AurCq85WZI0tsNrJ-141">
          <mxGeometry y="78" width="160" height="26" as="geometry" />
        </mxCell>
        <mxCell id="pZX7AurCq85WZI0tsNrJ-144" value="" style="line;html=1;strokeWidth=1;align=left;verticalAlign=middle;spacingTop=-1;spacingLeft=3;spacingRight=3;rotatable=0;labelPosition=right;points=[];portConstraint=eastwest;" vertex="1" parent="pZX7AurCq85WZI0tsNrJ-141">
          <mxGeometry y="104" width="160" height="8" as="geometry" />
        </mxCell>
        <mxCell id="pZX7AurCq85WZI0tsNrJ-145" value="getRoomCapacity()" style="text;align=left;verticalAlign=top;spacingLeft=4;spacingRight=4;overflow=hidden;rotatable=0;points=[[0,0.5],[1,0.5]];portConstraint=eastwest;fontStyle=0" vertex="1" parent="pZX7AurCq85WZI0tsNrJ-141">
          <mxGeometry y="112" width="160" height="26" as="geometry" />
        </mxCell>
        <mxCell id="pZX7AurCq85WZI0tsNrJ-171" value="getNumberPlace()" style="text;align=left;verticalAlign=top;spacingLeft=4;spacingRight=4;overflow=hidden;rotatable=0;points=[[0,0.5],[1,0.5]];portConstraint=eastwest;fontStyle=0" vertex="1" parent="pZX7AurCq85WZI0tsNrJ-141">
          <mxGeometry y="138" width="160" height="26" as="geometry" />
        </mxCell>
        <mxCell id="pZX7AurCq85WZI0tsNrJ-279" value="" style="edgeStyle=orthogonalEdgeStyle;rounded=0;orthogonalLoop=1;jettySize=auto;html=1;endArrow=none;endFill=0;" edge="1" parent="WIyWlLk6GJQsqaUBKTNV-1" source="pZX7AurCq85WZI0tsNrJ-147" target="pZX7AurCq85WZI0tsNrJ-183">
          <mxGeometry relative="1" as="geometry" />
        </mxCell>
        <mxCell id="pZX7AurCq85WZI0tsNrJ-316" value="Concerne" style="edgeLabel;html=1;align=center;verticalAlign=middle;resizable=0;points=[];" connectable="0" vertex="1" parent="pZX7AurCq85WZI0tsNrJ-279">
          <mxGeometry x="-0.5802" y="-2" relative="1" as="geometry">
            <mxPoint as="offset" />
          </mxGeometry>
        </mxCell>
        <mxCell id="pZX7AurCq85WZI0tsNrJ-147" value="Table" style="swimlane;fontStyle=0;align=center;verticalAlign=top;childLayout=stackLayout;horizontal=1;startSize=26;horizontalStack=0;resizeParent=1;resizeLast=0;collapsible=1;marginBottom=0;rounded=0;shadow=0;strokeWidth=1;fillColor=#dae8fc;strokeColor=#6c8ebf;" vertex="1" parent="WIyWlLk6GJQsqaUBKTNV-1">
          <mxGeometry x="1010" y="252" width="160" height="196" as="geometry">
            <mxRectangle x="130" y="380" width="160" height="26" as="alternateBounds" />
          </mxGeometry>
        </mxCell>
        <mxCell id="pZX7AurCq85WZI0tsNrJ-148" value="# id : Int (NOT NULL)" style="text;align=left;verticalAlign=top;spacingLeft=4;spacingRight=4;overflow=hidden;rotatable=0;points=[[0,0.5],[1,0.5]];portConstraint=eastwest;" vertex="1" parent="pZX7AurCq85WZI0tsNrJ-147">
          <mxGeometry y="26" width="160" height="26" as="geometry" />
        </mxCell>
        <mxCell id="pZX7AurCq85WZI0tsNrJ-149" value="name : Varchar (50)" style="text;align=left;verticalAlign=top;spacingLeft=4;spacingRight=4;overflow=hidden;rotatable=0;points=[[0,0.5],[1,0.5]];portConstraint=eastwest;rounded=0;shadow=0;html=0;" vertex="1" parent="pZX7AurCq85WZI0tsNrJ-147">
          <mxGeometry y="52" width="160" height="26" as="geometry" />
        </mxCell>
        <mxCell id="pZX7AurCq85WZI0tsNrJ-162" value="number_place" style="text;align=left;verticalAlign=top;spacingLeft=4;spacingRight=4;overflow=hidden;rotatable=0;points=[[0,0.5],[1,0.5]];portConstraint=eastwest;rounded=0;shadow=0;html=0;" vertex="1" parent="pZX7AurCq85WZI0tsNrJ-147">
          <mxGeometry y="78" width="160" height="26" as="geometry" />
        </mxCell>
        <mxCell id="pZX7AurCq85WZI0tsNrJ-150" value="" style="line;html=1;strokeWidth=1;align=left;verticalAlign=middle;spacingTop=-1;spacingLeft=3;spacingRight=3;rotatable=0;labelPosition=right;points=[];portConstraint=eastwest;" vertex="1" parent="pZX7AurCq85WZI0tsNrJ-147">
          <mxGeometry y="104" width="160" height="8" as="geometry" />
        </mxCell>
        <mxCell id="pZX7AurCq85WZI0tsNrJ-163" value="add()" style="text;align=left;verticalAlign=top;spacingLeft=4;spacingRight=4;overflow=hidden;rotatable=0;points=[[0,0.5],[1,0.5]];portConstraint=eastwest;fontStyle=4;fontColor=default;" vertex="1" parent="pZX7AurCq85WZI0tsNrJ-147">
          <mxGeometry y="112" width="160" height="26" as="geometry" />
        </mxCell>
        <mxCell id="pZX7AurCq85WZI0tsNrJ-164" value="update()" style="text;align=left;verticalAlign=top;spacingLeft=4;spacingRight=4;overflow=hidden;rotatable=0;points=[[0,0.5],[1,0.5]];portConstraint=eastwest;" vertex="1" parent="pZX7AurCq85WZI0tsNrJ-147">
          <mxGeometry y="138" width="160" height="26" as="geometry" />
        </mxCell>
        <mxCell id="pZX7AurCq85WZI0tsNrJ-165" value="delete()" style="text;align=left;verticalAlign=top;spacingLeft=4;spacingRight=4;overflow=hidden;rotatable=0;points=[[0,0.5],[1,0.5]];portConstraint=eastwest;" vertex="1" parent="pZX7AurCq85WZI0tsNrJ-147">
          <mxGeometry y="164" width="160" height="32" as="geometry" />
        </mxCell>
        <mxCell id="pZX7AurCq85WZI0tsNrJ-180" value="" style="rounded=0;orthogonalLoop=1;jettySize=auto;html=1;entryX=0;entryY=0.102;entryDx=0;entryDy=0;endArrow=none;endFill=0;exitDx=0;exitDy=0;exitPerimeter=0;entryPerimeter=0;startArrow=none;startFill=0;" edge="1" parent="WIyWlLk6GJQsqaUBKTNV-1" source="pZX7AurCq85WZI0tsNrJ-286" target="pZX7AurCq85WZI0tsNrJ-162">
          <mxGeometry relative="1" as="geometry" />
        </mxCell>
        <mxCell id="pZX7AurCq85WZI0tsNrJ-282" value="" style="edgeStyle=orthogonalEdgeStyle;rounded=0;orthogonalLoop=1;jettySize=auto;html=1;endArrow=none;endFill=0;" edge="1" parent="WIyWlLk6GJQsqaUBKTNV-1" source="pZX7AurCq85WZI0tsNrJ-283" target="pZX7AurCq85WZI0tsNrJ-191">
          <mxGeometry relative="1" as="geometry" />
        </mxCell>
        <mxCell id="pZX7AurCq85WZI0tsNrJ-153" value="Room" style="swimlane;fontStyle=0;align=center;verticalAlign=top;childLayout=stackLayout;horizontal=1;startSize=26;horizontalStack=0;resizeParent=1;resizeLast=0;collapsible=1;marginBottom=0;rounded=0;shadow=0;strokeWidth=1;fillColor=#dae8fc;strokeColor=#6c8ebf;" vertex="1" parent="WIyWlLk6GJQsqaUBKTNV-1">
          <mxGeometry x="560" y="250" width="160" height="172" as="geometry">
            <mxRectangle x="130" y="380" width="160" height="26" as="alternateBounds" />
          </mxGeometry>
        </mxCell>
        <mxCell id="pZX7AurCq85WZI0tsNrJ-154" value="# id : Int (NOT NULL)" style="text;align=left;verticalAlign=top;spacingLeft=4;spacingRight=4;overflow=hidden;rotatable=0;points=[[0,0.5],[1,0.5]];portConstraint=eastwest;" vertex="1" parent="pZX7AurCq85WZI0tsNrJ-153">
          <mxGeometry y="26" width="160" height="26" as="geometry" />
        </mxCell>
        <mxCell id="pZX7AurCq85WZI0tsNrJ-159" value="name : Varchar (50)" style="text;align=left;verticalAlign=top;spacingLeft=4;spacingRight=4;overflow=hidden;rotatable=0;points=[[0,0.5],[1,0.5]];portConstraint=eastwest;" vertex="1" parent="pZX7AurCq85WZI0tsNrJ-153">
          <mxGeometry y="52" width="160" height="26" as="geometry" />
        </mxCell>
        <mxCell id="pZX7AurCq85WZI0tsNrJ-156" value="" style="line;html=1;strokeWidth=1;align=left;verticalAlign=middle;spacingTop=-1;spacingLeft=3;spacingRight=3;rotatable=0;labelPosition=right;points=[];portConstraint=eastwest;" vertex="1" parent="pZX7AurCq85WZI0tsNrJ-153">
          <mxGeometry y="78" width="160" height="8" as="geometry" />
        </mxCell>
        <mxCell id="pZX7AurCq85WZI0tsNrJ-157" value="add()" style="text;align=left;verticalAlign=top;spacingLeft=4;spacingRight=4;overflow=hidden;rotatable=0;points=[[0,0.5],[1,0.5]];portConstraint=eastwest;fontStyle=4" vertex="1" parent="pZX7AurCq85WZI0tsNrJ-153">
          <mxGeometry y="86" width="160" height="26" as="geometry" />
        </mxCell>
        <mxCell id="pZX7AurCq85WZI0tsNrJ-158" value="update()" style="text;align=left;verticalAlign=top;spacingLeft=4;spacingRight=4;overflow=hidden;rotatable=0;points=[[0,0.5],[1,0.5]];portConstraint=eastwest;" vertex="1" parent="pZX7AurCq85WZI0tsNrJ-153">
          <mxGeometry y="112" width="160" height="26" as="geometry" />
        </mxCell>
        <mxCell id="pZX7AurCq85WZI0tsNrJ-161" value="delete()" style="text;align=left;verticalAlign=top;spacingLeft=4;spacingRight=4;overflow=hidden;rotatable=0;points=[[0,0.5],[1,0.5]];portConstraint=eastwest;" vertex="1" parent="pZX7AurCq85WZI0tsNrJ-153">
          <mxGeometry y="138" width="160" height="32" as="geometry" />
        </mxCell>
        <mxCell id="pZX7AurCq85WZI0tsNrJ-301" value="" style="edgeStyle=orthogonalEdgeStyle;rounded=0;orthogonalLoop=1;jettySize=auto;html=1;endArrow=none;endFill=0;" edge="1" parent="WIyWlLk6GJQsqaUBKTNV-1" source="pZX7AurCq85WZI0tsNrJ-198" target="pZX7AurCq85WZI0tsNrJ-114">
          <mxGeometry relative="1" as="geometry">
            <Array as="points">
              <mxPoint x="410" y="834" />
              <mxPoint x="410" y="834" />
            </Array>
          </mxGeometry>
        </mxCell>
        <mxCell id="pZX7AurCq85WZI0tsNrJ-323" value="Définir" style="edgeLabel;html=1;align=center;verticalAlign=middle;resizable=0;points=[];" connectable="0" vertex="1" parent="pZX7AurCq85WZI0tsNrJ-301">
          <mxGeometry x="0.06" y="1" relative="1" as="geometry">
            <mxPoint as="offset" />
          </mxGeometry>
        </mxCell>
        <mxCell id="pZX7AurCq85WZI0tsNrJ-198" value="Staff" style="swimlane;fontStyle=0;align=center;verticalAlign=top;childLayout=stackLayout;horizontal=1;startSize=26;horizontalStack=0;resizeParent=1;resizeLast=0;collapsible=1;marginBottom=0;rounded=0;shadow=0;strokeWidth=1;fillColor=#dae8fc;strokeColor=#6c8ebf;" vertex="1" parent="WIyWlLk6GJQsqaUBKTNV-1">
          <mxGeometry x="150" y="713" width="160" height="242" as="geometry">
            <mxRectangle x="130" y="380" width="160" height="26" as="alternateBounds" />
          </mxGeometry>
        </mxCell>
        <mxCell id="pZX7AurCq85WZI0tsNrJ-199" value="# id : Int (NOT NULL)" style="text;align=left;verticalAlign=top;spacingLeft=4;spacingRight=4;overflow=hidden;rotatable=0;points=[[0,0.5],[1,0.5]];portConstraint=eastwest;" vertex="1" parent="pZX7AurCq85WZI0tsNrJ-198">
          <mxGeometry y="26" width="160" height="26" as="geometry" />
        </mxCell>
        <mxCell id="pZX7AurCq85WZI0tsNrJ-200" value="name : Varchar (50)" style="text;align=left;verticalAlign=top;spacingLeft=4;spacingRight=4;overflow=hidden;rotatable=0;points=[[0,0.5],[1,0.5]];portConstraint=eastwest;rounded=0;shadow=0;html=0;" vertex="1" parent="pZX7AurCq85WZI0tsNrJ-198">
          <mxGeometry y="52" width="160" height="26" as="geometry" />
        </mxCell>
        <mxCell id="pZX7AurCq85WZI0tsNrJ-201" value="phone : Varchar(25)" style="text;align=left;verticalAlign=top;spacingLeft=4;spacingRight=4;overflow=hidden;rotatable=0;points=[[0,0.5],[1,0.5]];portConstraint=eastwest;rounded=0;shadow=0;html=0;" vertex="1" parent="pZX7AurCq85WZI0tsNrJ-198">
          <mxGeometry y="78" width="160" height="26" as="geometry" />
        </mxCell>
        <mxCell id="pZX7AurCq85WZI0tsNrJ-202" value="email : Varchar (25)" style="text;align=left;verticalAlign=top;spacingLeft=4;spacingRight=4;overflow=hidden;rotatable=0;points=[[0,0.5],[1,0.5]];portConstraint=eastwest;rounded=0;shadow=0;html=0;" vertex="1" parent="pZX7AurCq85WZI0tsNrJ-198">
          <mxGeometry y="104" width="160" height="26" as="geometry" />
        </mxCell>
        <mxCell id="pZX7AurCq85WZI0tsNrJ-203" value="job_title : Varchar (50)" style="text;align=left;verticalAlign=top;spacingLeft=4;spacingRight=4;overflow=hidden;rotatable=0;points=[[0,0.5],[1,0.5]];portConstraint=eastwest;rounded=0;shadow=0;html=0;" vertex="1" parent="pZX7AurCq85WZI0tsNrJ-198">
          <mxGeometry y="130" width="160" height="26" as="geometry" />
        </mxCell>
        <mxCell id="pZX7AurCq85WZI0tsNrJ-204" value="" style="line;html=1;strokeWidth=1;align=left;verticalAlign=middle;spacingTop=-1;spacingLeft=3;spacingRight=3;rotatable=0;labelPosition=right;points=[];portConstraint=eastwest;" vertex="1" parent="pZX7AurCq85WZI0tsNrJ-198">
          <mxGeometry y="156" width="160" height="8" as="geometry" />
        </mxCell>
        <mxCell id="pZX7AurCq85WZI0tsNrJ-205" value="add()" style="text;align=left;verticalAlign=top;spacingLeft=4;spacingRight=4;overflow=hidden;rotatable=0;points=[[0,0.5],[1,0.5]];portConstraint=eastwest;fontStyle=4" vertex="1" parent="pZX7AurCq85WZI0tsNrJ-198">
          <mxGeometry y="164" width="160" height="26" as="geometry" />
        </mxCell>
        <mxCell id="pZX7AurCq85WZI0tsNrJ-206" value="update()" style="text;align=left;verticalAlign=top;spacingLeft=4;spacingRight=4;overflow=hidden;rotatable=0;points=[[0,0.5],[1,0.5]];portConstraint=eastwest;" vertex="1" parent="pZX7AurCq85WZI0tsNrJ-198">
          <mxGeometry y="190" width="160" height="26" as="geometry" />
        </mxCell>
        <mxCell id="pZX7AurCq85WZI0tsNrJ-207" value="delete()" style="text;align=left;verticalAlign=top;spacingLeft=4;spacingRight=4;overflow=hidden;rotatable=0;points=[[0,0.5],[1,0.5]];portConstraint=eastwest;" vertex="1" parent="pZX7AurCq85WZI0tsNrJ-198">
          <mxGeometry y="216" width="160" height="26" as="geometry" />
        </mxCell>
        <mxCell id="pZX7AurCq85WZI0tsNrJ-290" value="" style="edgeStyle=orthogonalEdgeStyle;rounded=0;orthogonalLoop=1;jettySize=auto;html=1;endArrow=none;endFill=0;" edge="1" parent="WIyWlLk6GJQsqaUBKTNV-1" source="pZX7AurCq85WZI0tsNrJ-291" target="pZX7AurCq85WZI0tsNrJ-276">
          <mxGeometry relative="1" as="geometry" />
        </mxCell>
        <mxCell id="pZX7AurCq85WZI0tsNrJ-210" value="Event" style="swimlane;fontStyle=0;align=center;verticalAlign=top;childLayout=stackLayout;horizontal=1;startSize=26;horizontalStack=0;resizeParent=1;resizeLast=0;collapsible=1;marginBottom=0;rounded=0;shadow=0;strokeWidth=1;fillColor=#dae8fc;strokeColor=#6c8ebf;" vertex="1" parent="WIyWlLk6GJQsqaUBKTNV-1">
          <mxGeometry x="320" y="1117" width="180" height="268" as="geometry">
            <mxRectangle x="130" y="380" width="160" height="26" as="alternateBounds" />
          </mxGeometry>
        </mxCell>
        <mxCell id="pZX7AurCq85WZI0tsNrJ-211" value="# id : Int (NOT NULL)" style="text;align=left;verticalAlign=top;spacingLeft=4;spacingRight=4;overflow=hidden;rotatable=0;points=[[0,0.5],[1,0.5]];portConstraint=eastwest;" vertex="1" parent="pZX7AurCq85WZI0tsNrJ-210">
          <mxGeometry y="26" width="180" height="26" as="geometry" />
        </mxCell>
        <mxCell id="pZX7AurCq85WZI0tsNrJ-212" value="name : Varchar (50)" style="text;align=left;verticalAlign=top;spacingLeft=4;spacingRight=4;overflow=hidden;rotatable=0;points=[[0,0.5],[1,0.5]];portConstraint=eastwest;rounded=0;shadow=0;html=0;" vertex="1" parent="pZX7AurCq85WZI0tsNrJ-210">
          <mxGeometry y="52" width="180" height="26" as="geometry" />
        </mxCell>
        <mxCell id="pZX7AurCq85WZI0tsNrJ-213" value="participant_max_number : Int" style="text;align=left;verticalAlign=top;spacingLeft=4;spacingRight=4;overflow=hidden;rotatable=0;points=[[0,0.5],[1,0.5]];portConstraint=eastwest;rounded=0;shadow=0;html=0;" vertex="1" parent="pZX7AurCq85WZI0tsNrJ-210">
          <mxGeometry y="78" width="180" height="26" as="geometry" />
        </mxCell>
        <mxCell id="pZX7AurCq85WZI0tsNrJ-214" value="recurrence : Int" style="text;align=left;verticalAlign=top;spacingLeft=4;spacingRight=4;overflow=hidden;rotatable=0;points=[[0,0.5],[1,0.5]];portConstraint=eastwest;rounded=0;shadow=0;html=0;" vertex="1" parent="pZX7AurCq85WZI0tsNrJ-210">
          <mxGeometry y="104" width="180" height="26" as="geometry" />
        </mxCell>
        <mxCell id="pZX7AurCq85WZI0tsNrJ-219" value="theoretical_start_time : datetime" style="text;align=left;verticalAlign=top;spacingLeft=4;spacingRight=4;overflow=hidden;rotatable=0;points=[[0,0.5],[1,0.5]];portConstraint=eastwest;rounded=0;shadow=0;html=0;" vertex="1" parent="pZX7AurCq85WZI0tsNrJ-210">
          <mxGeometry y="130" width="180" height="26" as="geometry" />
        </mxCell>
        <mxCell id="pZX7AurCq85WZI0tsNrJ-220" value="theoretical_end_time : datetime" style="text;align=left;verticalAlign=top;spacingLeft=4;spacingRight=4;overflow=hidden;rotatable=0;points=[[0,0.5],[1,0.5]];portConstraint=eastwest;rounded=0;shadow=0;html=0;" vertex="1" parent="pZX7AurCq85WZI0tsNrJ-210">
          <mxGeometry y="156" width="180" height="26" as="geometry" />
        </mxCell>
        <mxCell id="pZX7AurCq85WZI0tsNrJ-215" value="" style="line;html=1;strokeWidth=1;align=left;verticalAlign=middle;spacingTop=-1;spacingLeft=3;spacingRight=3;rotatable=0;labelPosition=right;points=[];portConstraint=eastwest;" vertex="1" parent="pZX7AurCq85WZI0tsNrJ-210">
          <mxGeometry y="182" width="180" height="8" as="geometry" />
        </mxCell>
        <mxCell id="pZX7AurCq85WZI0tsNrJ-216" value="add()" style="text;align=left;verticalAlign=top;spacingLeft=4;spacingRight=4;overflow=hidden;rotatable=0;points=[[0,0.5],[1,0.5]];portConstraint=eastwest;fontStyle=4" vertex="1" parent="pZX7AurCq85WZI0tsNrJ-210">
          <mxGeometry y="190" width="180" height="26" as="geometry" />
        </mxCell>
        <mxCell id="pZX7AurCq85WZI0tsNrJ-217" value="update()" style="text;align=left;verticalAlign=top;spacingLeft=4;spacingRight=4;overflow=hidden;rotatable=0;points=[[0,0.5],[1,0.5]];portConstraint=eastwest;" vertex="1" parent="pZX7AurCq85WZI0tsNrJ-210">
          <mxGeometry y="216" width="180" height="26" as="geometry" />
        </mxCell>
        <mxCell id="pZX7AurCq85WZI0tsNrJ-218" value="delete()" style="text;align=left;verticalAlign=top;spacingLeft=4;spacingRight=4;overflow=hidden;rotatable=0;points=[[0,0.5],[1,0.5]];portConstraint=eastwest;" vertex="1" parent="pZX7AurCq85WZI0tsNrJ-210">
          <mxGeometry y="242" width="180" height="26" as="geometry" />
        </mxCell>
        <mxCell id="pZX7AurCq85WZI0tsNrJ-292" value="" style="rounded=0;orthogonalLoop=1;jettySize=auto;html=1;dashed=1;endArrow=none;endFill=0;" edge="1" parent="WIyWlLk6GJQsqaUBKTNV-1" source="pZX7AurCq85WZI0tsNrJ-221" target="pZX7AurCq85WZI0tsNrJ-291">
          <mxGeometry relative="1" as="geometry" />
        </mxCell>
        <mxCell id="pZX7AurCq85WZI0tsNrJ-221" value="Event_Deposit" style="swimlane;fontStyle=0;align=center;verticalAlign=top;childLayout=stackLayout;horizontal=1;startSize=26;horizontalStack=0;resizeParent=1;resizeLast=0;collapsible=1;marginBottom=0;rounded=0;shadow=0;strokeWidth=1;fillColor=#dae8fc;strokeColor=#6c8ebf;" vertex="1" parent="WIyWlLk6GJQsqaUBKTNV-1">
          <mxGeometry x="570" y="1024" width="160" height="138" as="geometry">
            <mxRectangle x="130" y="380" width="160" height="26" as="alternateBounds" />
          </mxGeometry>
        </mxCell>
        <mxCell id="pZX7AurCq85WZI0tsNrJ-222" value="# id : Int ( NOT NULL )" style="text;align=left;verticalAlign=top;spacingLeft=4;spacingRight=4;overflow=hidden;rotatable=0;points=[[0,0.5],[1,0.5]];portConstraint=eastwest;" vertex="1" parent="pZX7AurCq85WZI0tsNrJ-221">
          <mxGeometry y="26" width="160" height="26" as="geometry" />
        </mxCell>
        <mxCell id="pZX7AurCq85WZI0tsNrJ-223" value="amount : Float" style="text;align=left;verticalAlign=top;spacingLeft=4;spacingRight=4;overflow=hidden;rotatable=0;points=[[0,0.5],[1,0.5]];portConstraint=eastwest;rounded=0;shadow=0;html=0;" vertex="1" parent="pZX7AurCq85WZI0tsNrJ-221">
          <mxGeometry y="52" width="160" height="26" as="geometry" />
        </mxCell>
        <mxCell id="pZX7AurCq85WZI0tsNrJ-224" value="" style="line;html=1;strokeWidth=1;align=left;verticalAlign=middle;spacingTop=-1;spacingLeft=3;spacingRight=3;rotatable=0;labelPosition=right;points=[];portConstraint=eastwest;" vertex="1" parent="pZX7AurCq85WZI0tsNrJ-221">
          <mxGeometry y="78" width="160" height="8" as="geometry" />
        </mxCell>
        <mxCell id="pZX7AurCq85WZI0tsNrJ-225" value="pay()" style="text;align=left;verticalAlign=top;spacingLeft=4;spacingRight=4;overflow=hidden;rotatable=0;points=[[0,0.5],[1,0.5]];portConstraint=eastwest;fontStyle=4" vertex="1" parent="pZX7AurCq85WZI0tsNrJ-221">
          <mxGeometry y="86" width="160" height="26" as="geometry" />
        </mxCell>
        <mxCell id="pZX7AurCq85WZI0tsNrJ-226" value="cancel()" style="text;align=left;verticalAlign=top;spacingLeft=4;spacingRight=4;overflow=hidden;rotatable=0;points=[[0,0.5],[1,0.5]];portConstraint=eastwest;" vertex="1" parent="pZX7AurCq85WZI0tsNrJ-221">
          <mxGeometry y="112" width="160" height="26" as="geometry" />
        </mxCell>
        <mxCell id="pZX7AurCq85WZI0tsNrJ-296" value="" style="edgeStyle=orthogonalEdgeStyle;rounded=0;orthogonalLoop=1;jettySize=auto;html=1;endArrow=none;endFill=0;" edge="1" parent="WIyWlLk6GJQsqaUBKTNV-1" source="pZX7AurCq85WZI0tsNrJ-297" target="pZX7AurCq85WZI0tsNrJ-192">
          <mxGeometry relative="1" as="geometry" />
        </mxCell>
        <mxCell id="pZX7AurCq85WZI0tsNrJ-227" value="Animator" style="swimlane;fontStyle=0;align=center;verticalAlign=top;childLayout=stackLayout;horizontal=1;startSize=26;horizontalStack=0;resizeParent=1;resizeLast=0;collapsible=1;marginBottom=0;rounded=0;shadow=0;strokeWidth=1;fillColor=#dae8fc;strokeColor=#6c8ebf;" vertex="1" parent="WIyWlLk6GJQsqaUBKTNV-1">
          <mxGeometry x="670" y="1310" width="160" height="242" as="geometry">
            <mxRectangle x="130" y="380" width="160" height="26" as="alternateBounds" />
          </mxGeometry>
        </mxCell>
        <mxCell id="pZX7AurCq85WZI0tsNrJ-228" value="# id : Int (NOT NULL)" style="text;align=left;verticalAlign=top;spacingLeft=4;spacingRight=4;overflow=hidden;rotatable=0;points=[[0,0.5],[1,0.5]];portConstraint=eastwest;" vertex="1" parent="pZX7AurCq85WZI0tsNrJ-227">
          <mxGeometry y="26" width="160" height="26" as="geometry" />
        </mxCell>
        <mxCell id="pZX7AurCq85WZI0tsNrJ-229" value="name : Varchar (50)" style="text;align=left;verticalAlign=top;spacingLeft=4;spacingRight=4;overflow=hidden;rotatable=0;points=[[0,0.5],[1,0.5]];portConstraint=eastwest;rounded=0;shadow=0;html=0;" vertex="1" parent="pZX7AurCq85WZI0tsNrJ-227">
          <mxGeometry y="52" width="160" height="26" as="geometry" />
        </mxCell>
        <mxCell id="pZX7AurCq85WZI0tsNrJ-230" value="phone : Varchar(25)" style="text;align=left;verticalAlign=top;spacingLeft=4;spacingRight=4;overflow=hidden;rotatable=0;points=[[0,0.5],[1,0.5]];portConstraint=eastwest;rounded=0;shadow=0;html=0;" vertex="1" parent="pZX7AurCq85WZI0tsNrJ-227">
          <mxGeometry y="78" width="160" height="26" as="geometry" />
        </mxCell>
        <mxCell id="pZX7AurCq85WZI0tsNrJ-231" value="email : Varchar (25)" style="text;align=left;verticalAlign=top;spacingLeft=4;spacingRight=4;overflow=hidden;rotatable=0;points=[[0,0.5],[1,0.5]];portConstraint=eastwest;rounded=0;shadow=0;html=0;" vertex="1" parent="pZX7AurCq85WZI0tsNrJ-227">
          <mxGeometry y="104" width="160" height="26" as="geometry" />
        </mxCell>
        <mxCell id="pZX7AurCq85WZI0tsNrJ-232" value="speciality : Varchar (50)" style="text;align=left;verticalAlign=top;spacingLeft=4;spacingRight=4;overflow=hidden;rotatable=0;points=[[0,0.5],[1,0.5]];portConstraint=eastwest;rounded=0;shadow=0;html=0;" vertex="1" parent="pZX7AurCq85WZI0tsNrJ-227">
          <mxGeometry y="130" width="160" height="26" as="geometry" />
        </mxCell>
        <mxCell id="pZX7AurCq85WZI0tsNrJ-233" value="" style="line;html=1;strokeWidth=1;align=left;verticalAlign=middle;spacingTop=-1;spacingLeft=3;spacingRight=3;rotatable=0;labelPosition=right;points=[];portConstraint=eastwest;" vertex="1" parent="pZX7AurCq85WZI0tsNrJ-227">
          <mxGeometry y="156" width="160" height="8" as="geometry" />
        </mxCell>
        <mxCell id="pZX7AurCq85WZI0tsNrJ-234" value="add()" style="text;align=left;verticalAlign=top;spacingLeft=4;spacingRight=4;overflow=hidden;rotatable=0;points=[[0,0.5],[1,0.5]];portConstraint=eastwest;fontStyle=4" vertex="1" parent="pZX7AurCq85WZI0tsNrJ-227">
          <mxGeometry y="164" width="160" height="26" as="geometry" />
        </mxCell>
        <mxCell id="pZX7AurCq85WZI0tsNrJ-235" value="update()" style="text;align=left;verticalAlign=top;spacingLeft=4;spacingRight=4;overflow=hidden;rotatable=0;points=[[0,0.5],[1,0.5]];portConstraint=eastwest;" vertex="1" parent="pZX7AurCq85WZI0tsNrJ-227">
          <mxGeometry y="190" width="160" height="26" as="geometry" />
        </mxCell>
        <mxCell id="pZX7AurCq85WZI0tsNrJ-236" value="delete()" style="text;align=left;verticalAlign=top;spacingLeft=4;spacingRight=4;overflow=hidden;rotatable=0;points=[[0,0.5],[1,0.5]];portConstraint=eastwest;" vertex="1" parent="pZX7AurCq85WZI0tsNrJ-227">
          <mxGeometry y="216" width="160" height="26" as="geometry" />
        </mxCell>
        <mxCell id="pZX7AurCq85WZI0tsNrJ-298" value="" style="edgeStyle=orthogonalEdgeStyle;rounded=0;orthogonalLoop=1;jettySize=auto;html=1;dashed=1;endArrow=none;endFill=0;" edge="1" parent="WIyWlLk6GJQsqaUBKTNV-1" source="pZX7AurCq85WZI0tsNrJ-237" target="pZX7AurCq85WZI0tsNrJ-297">
          <mxGeometry relative="1" as="geometry" />
        </mxCell>
        <mxCell id="pZX7AurCq85WZI0tsNrJ-237" value="Allocation" style="swimlane;fontStyle=0;align=center;verticalAlign=top;childLayout=stackLayout;horizontal=1;startSize=26;horizontalStack=0;resizeParent=1;resizeLast=0;collapsible=1;marginBottom=0;rounded=0;shadow=0;strokeWidth=1;fillColor=#dae8fc;strokeColor=#6c8ebf;" vertex="1" parent="WIyWlLk6GJQsqaUBKTNV-1">
          <mxGeometry x="810" y="1095" width="160" height="190" as="geometry">
            <mxRectangle x="130" y="380" width="160" height="26" as="alternateBounds" />
          </mxGeometry>
        </mxCell>
        <mxCell id="pZX7AurCq85WZI0tsNrJ-238" value="# id : Int ( NOT NULL )" style="text;align=left;verticalAlign=top;spacingLeft=4;spacingRight=4;overflow=hidden;rotatable=0;points=[[0,0.5],[1,0.5]];portConstraint=eastwest;" vertex="1" parent="pZX7AurCq85WZI0tsNrJ-237">
          <mxGeometry y="26" width="160" height="26" as="geometry" />
        </mxCell>
        <mxCell id="pZX7AurCq85WZI0tsNrJ-239" value="start_time : datetime" style="text;align=left;verticalAlign=top;spacingLeft=4;spacingRight=4;overflow=hidden;rotatable=0;points=[[0,0.5],[1,0.5]];portConstraint=eastwest;rounded=0;shadow=0;html=0;" vertex="1" parent="pZX7AurCq85WZI0tsNrJ-237">
          <mxGeometry y="52" width="160" height="26" as="geometry" />
        </mxCell>
        <mxCell id="pZX7AurCq85WZI0tsNrJ-243" value="limit_time : datetime" style="text;align=left;verticalAlign=top;spacingLeft=4;spacingRight=4;overflow=hidden;rotatable=0;points=[[0,0.5],[1,0.5]];portConstraint=eastwest;rounded=0;shadow=0;html=0;" vertex="1" parent="pZX7AurCq85WZI0tsNrJ-237">
          <mxGeometry y="78" width="160" height="26" as="geometry" />
        </mxCell>
        <mxCell id="pZX7AurCq85WZI0tsNrJ-244" value="amount : Float" style="text;align=left;verticalAlign=top;spacingLeft=4;spacingRight=4;overflow=hidden;rotatable=0;points=[[0,0.5],[1,0.5]];portConstraint=eastwest;rounded=0;shadow=0;html=0;" vertex="1" parent="pZX7AurCq85WZI0tsNrJ-237">
          <mxGeometry y="104" width="160" height="26" as="geometry" />
        </mxCell>
        <mxCell id="pZX7AurCq85WZI0tsNrJ-240" value="" style="line;html=1;strokeWidth=1;align=left;verticalAlign=middle;spacingTop=-1;spacingLeft=3;spacingRight=3;rotatable=0;labelPosition=right;points=[];portConstraint=eastwest;" vertex="1" parent="pZX7AurCq85WZI0tsNrJ-237">
          <mxGeometry y="130" width="160" height="8" as="geometry" />
        </mxCell>
        <mxCell id="pZX7AurCq85WZI0tsNrJ-241" value="pay()" style="text;align=left;verticalAlign=top;spacingLeft=4;spacingRight=4;overflow=hidden;rotatable=0;points=[[0,0.5],[1,0.5]];portConstraint=eastwest;fontStyle=4" vertex="1" parent="pZX7AurCq85WZI0tsNrJ-237">
          <mxGeometry y="138" width="160" height="26" as="geometry" />
        </mxCell>
        <mxCell id="pZX7AurCq85WZI0tsNrJ-242" value="cancel()" style="text;align=left;verticalAlign=top;spacingLeft=4;spacingRight=4;overflow=hidden;rotatable=0;points=[[0,0.5],[1,0.5]];portConstraint=eastwest;" vertex="1" parent="pZX7AurCq85WZI0tsNrJ-237">
          <mxGeometry y="164" width="160" height="26" as="geometry" />
        </mxCell>
        <mxCell id="pZX7AurCq85WZI0tsNrJ-308" value="" style="edgeStyle=orthogonalEdgeStyle;rounded=0;orthogonalLoop=1;jettySize=auto;html=1;dashed=1;endArrow=none;endFill=0;" edge="1" parent="WIyWlLk6GJQsqaUBKTNV-1" source="pZX7AurCq85WZI0tsNrJ-245" target="pZX7AurCq85WZI0tsNrJ-307">
          <mxGeometry relative="1" as="geometry">
            <Array as="points">
              <mxPoint x="1090" y="990" />
              <mxPoint x="1090" y="990" />
            </Array>
          </mxGeometry>
        </mxCell>
        <mxCell id="pZX7AurCq85WZI0tsNrJ-245" value="Slots_Available" style="swimlane;fontStyle=0;align=center;verticalAlign=top;childLayout=stackLayout;horizontal=1;startSize=26;horizontalStack=0;resizeParent=1;resizeLast=0;collapsible=1;marginBottom=0;rounded=0;shadow=0;strokeWidth=1;fillColor=#dae8fc;strokeColor=#6c8ebf;" vertex="1" parent="WIyWlLk6GJQsqaUBKTNV-1">
          <mxGeometry x="1010" y="1055" width="160" height="190" as="geometry">
            <mxRectangle x="130" y="380" width="160" height="26" as="alternateBounds" />
          </mxGeometry>
        </mxCell>
        <mxCell id="pZX7AurCq85WZI0tsNrJ-246" value="# id : Int ( NOT NULL)" style="text;align=left;verticalAlign=top;spacingLeft=4;spacingRight=4;overflow=hidden;rotatable=0;points=[[0,0.5],[1,0.5]];portConstraint=eastwest;" vertex="1" parent="pZX7AurCq85WZI0tsNrJ-245">
          <mxGeometry y="26" width="160" height="26" as="geometry" />
        </mxCell>
        <mxCell id="pZX7AurCq85WZI0tsNrJ-247" value="start_time : Datetime" style="text;align=left;verticalAlign=top;spacingLeft=4;spacingRight=4;overflow=hidden;rotatable=0;points=[[0,0.5],[1,0.5]];portConstraint=eastwest;rounded=0;shadow=0;html=0;" vertex="1" parent="pZX7AurCq85WZI0tsNrJ-245">
          <mxGeometry y="52" width="160" height="26" as="geometry" />
        </mxCell>
        <mxCell id="pZX7AurCq85WZI0tsNrJ-248" value="end_time : Datetime" style="text;align=left;verticalAlign=top;spacingLeft=4;spacingRight=4;overflow=hidden;rotatable=0;points=[[0,0.5],[1,0.5]];portConstraint=eastwest;rounded=0;shadow=0;html=0;" vertex="1" parent="pZX7AurCq85WZI0tsNrJ-245">
          <mxGeometry y="78" width="160" height="26" as="geometry" />
        </mxCell>
        <mxCell id="pZX7AurCq85WZI0tsNrJ-249" value="additionnal_hour : Int" style="text;align=left;verticalAlign=top;spacingLeft=4;spacingRight=4;overflow=hidden;rotatable=0;points=[[0,0.5],[1,0.5]];portConstraint=eastwest;rounded=0;shadow=0;html=0;" vertex="1" parent="pZX7AurCq85WZI0tsNrJ-245">
          <mxGeometry y="104" width="160" height="26" as="geometry" />
        </mxCell>
        <mxCell id="pZX7AurCq85WZI0tsNrJ-250" value="" style="line;html=1;strokeWidth=1;align=left;verticalAlign=middle;spacingTop=-1;spacingLeft=3;spacingRight=3;rotatable=0;labelPosition=right;points=[];portConstraint=eastwest;" vertex="1" parent="pZX7AurCq85WZI0tsNrJ-245">
          <mxGeometry y="130" width="160" height="8" as="geometry" />
        </mxCell>
        <mxCell id="pZX7AurCq85WZI0tsNrJ-251" value="set()" style="text;align=left;verticalAlign=top;spacingLeft=4;spacingRight=4;overflow=hidden;rotatable=0;points=[[0,0.5],[1,0.5]];portConstraint=eastwest;fontStyle=4" vertex="1" parent="pZX7AurCq85WZI0tsNrJ-245">
          <mxGeometry y="138" width="160" height="26" as="geometry" />
        </mxCell>
        <mxCell id="pZX7AurCq85WZI0tsNrJ-252" value="update()" style="text;align=left;verticalAlign=top;spacingLeft=4;spacingRight=4;overflow=hidden;rotatable=0;points=[[0,0.5],[1,0.5]];portConstraint=eastwest;" vertex="1" parent="pZX7AurCq85WZI0tsNrJ-245">
          <mxGeometry y="164" width="160" height="26" as="geometry" />
        </mxCell>
        <mxCell id="pZX7AurCq85WZI0tsNrJ-285" value="" style="edgeStyle=orthogonalEdgeStyle;rounded=0;orthogonalLoop=1;jettySize=auto;html=1;endArrow=none;endFill=0;" edge="1" parent="WIyWlLk6GJQsqaUBKTNV-1" source="pZX7AurCq85WZI0tsNrJ-153" target="pZX7AurCq85WZI0tsNrJ-283">
          <mxGeometry relative="1" as="geometry">
            <mxPoint x="640" y="422" as="sourcePoint" />
            <mxPoint x="770" y="688" as="targetPoint" />
          </mxGeometry>
        </mxCell>
        <mxCell id="pZX7AurCq85WZI0tsNrJ-317" value="Concerne" style="edgeLabel;html=1;align=center;verticalAlign=middle;resizable=0;points=[];" connectable="0" vertex="1" parent="pZX7AurCq85WZI0tsNrJ-285">
          <mxGeometry x="0.0511" y="-2" relative="1" as="geometry">
            <mxPoint as="offset" />
          </mxGeometry>
        </mxCell>
        <mxCell id="pZX7AurCq85WZI0tsNrJ-283" value="" style="shape=waypoint;sketch=0;size=6;pointerEvents=1;points=[];fillColor=default;resizable=0;rotatable=0;perimeter=centerPerimeter;snapToPoint=1;verticalAlign=top;fontStyle=0;startSize=26;rounded=0;shadow=0;strokeWidth=1;" vertex="1" parent="WIyWlLk6GJQsqaUBKTNV-1">
          <mxGeometry x="630" y="549" width="20" height="20" as="geometry" />
        </mxCell>
        <mxCell id="pZX7AurCq85WZI0tsNrJ-288" value="" style="rounded=0;orthogonalLoop=1;jettySize=auto;html=1;entryDx=0;entryDy=0;endArrow=none;endFill=0;exitX=0.997;exitY=0.333;exitDx=0;exitDy=0;exitPerimeter=0;entryPerimeter=0;startArrow=diamond;startFill=1;endSize=6;strokeWidth=1;" edge="1" parent="WIyWlLk6GJQsqaUBKTNV-1" source="pZX7AurCq85WZI0tsNrJ-156" target="pZX7AurCq85WZI0tsNrJ-286">
          <mxGeometry relative="1" as="geometry">
            <mxPoint x="720" y="331" as="sourcePoint" />
            <mxPoint x="1000" y="331" as="targetPoint" />
          </mxGeometry>
        </mxCell>
        <mxCell id="pZX7AurCq85WZI0tsNrJ-286" value="" style="shape=waypoint;sketch=0;size=6;pointerEvents=1;points=[];fillColor=default;resizable=0;rotatable=0;perimeter=centerPerimeter;snapToPoint=1;verticalAlign=top;fontStyle=0;startSize=26;rounded=0;shadow=0;strokeWidth=1;" vertex="1" parent="WIyWlLk6GJQsqaUBKTNV-1">
          <mxGeometry x="850" y="322" width="20" height="20" as="geometry" />
        </mxCell>
        <mxCell id="pZX7AurCq85WZI0tsNrJ-293" value="" style="edgeStyle=orthogonalEdgeStyle;rounded=0;orthogonalLoop=1;jettySize=auto;html=1;endArrow=none;endFill=0;" edge="1" parent="WIyWlLk6GJQsqaUBKTNV-1" source="pZX7AurCq85WZI0tsNrJ-210" target="pZX7AurCq85WZI0tsNrJ-291">
          <mxGeometry relative="1" as="geometry">
            <mxPoint x="440" y="922" as="sourcePoint" />
            <mxPoint x="770" y="922" as="targetPoint" />
            <Array as="points">
              <mxPoint x="540" y="1256" />
              <mxPoint x="540" y="922" />
            </Array>
          </mxGeometry>
        </mxCell>
        <mxCell id="pZX7AurCq85WZI0tsNrJ-291" value="" style="shape=waypoint;sketch=0;size=6;pointerEvents=1;points=[];fillColor=default;resizable=0;rotatable=0;perimeter=centerPerimeter;snapToPoint=1;verticalAlign=top;fontStyle=0;startSize=26;rounded=0;shadow=0;strokeWidth=1;" vertex="1" parent="WIyWlLk6GJQsqaUBKTNV-1">
          <mxGeometry x="640" y="911" width="20" height="20" as="geometry" />
        </mxCell>
        <mxCell id="pZX7AurCq85WZI0tsNrJ-299" value="" style="edgeStyle=orthogonalEdgeStyle;rounded=0;orthogonalLoop=1;jettySize=auto;html=1;endArrow=none;endFill=0;" edge="1" parent="WIyWlLk6GJQsqaUBKTNV-1" source="pZX7AurCq85WZI0tsNrJ-227" target="pZX7AurCq85WZI0tsNrJ-297">
          <mxGeometry relative="1" as="geometry">
            <mxPoint x="750" y="1328" as="sourcePoint" />
            <mxPoint x="770" y="1060" as="targetPoint" />
          </mxGeometry>
        </mxCell>
        <mxCell id="pZX7AurCq85WZI0tsNrJ-318" value="Concerne" style="edgeLabel;html=1;align=center;verticalAlign=middle;resizable=0;points=[];" connectable="0" vertex="1" parent="pZX7AurCq85WZI0tsNrJ-299">
          <mxGeometry x="0.1333" y="3" relative="1" as="geometry">
            <mxPoint as="offset" />
          </mxGeometry>
        </mxCell>
        <mxCell id="pZX7AurCq85WZI0tsNrJ-297" value="" style="shape=waypoint;sketch=0;size=6;pointerEvents=1;points=[];fillColor=default;resizable=0;rotatable=0;perimeter=centerPerimeter;snapToPoint=1;verticalAlign=top;fontStyle=0;startSize=26;rounded=0;shadow=0;strokeWidth=1;" vertex="1" parent="WIyWlLk6GJQsqaUBKTNV-1">
          <mxGeometry x="740" y="1180" width="20" height="20" as="geometry" />
        </mxCell>
        <mxCell id="pZX7AurCq85WZI0tsNrJ-306" value="" style="rounded=0;orthogonalLoop=1;jettySize=auto;html=1;endArrow=none;endFill=0;" edge="1" parent="WIyWlLk6GJQsqaUBKTNV-1" source="pZX7AurCq85WZI0tsNrJ-307" target="pZX7AurCq85WZI0tsNrJ-278">
          <mxGeometry relative="1" as="geometry" />
        </mxCell>
        <mxCell id="pZX7AurCq85WZI0tsNrJ-309" value="" style="rounded=0;orthogonalLoop=1;jettySize=auto;html=1;endArrow=none;endFill=0;" edge="1" parent="WIyWlLk6GJQsqaUBKTNV-1" source="pZX7AurCq85WZI0tsNrJ-194" target="pZX7AurCq85WZI0tsNrJ-307">
          <mxGeometry relative="1" as="geometry">
            <mxPoint x="1214" y="970" as="sourcePoint" />
            <mxPoint x="960" y="972" as="targetPoint" />
          </mxGeometry>
        </mxCell>
        <mxCell id="pZX7AurCq85WZI0tsNrJ-307" value="" style="shape=waypoint;sketch=0;size=6;pointerEvents=1;points=[];fillColor=default;resizable=0;rotatable=0;perimeter=centerPerimeter;snapToPoint=1;verticalAlign=top;fontStyle=0;startSize=26;rounded=0;shadow=0;strokeWidth=1;" vertex="1" parent="WIyWlLk6GJQsqaUBKTNV-1">
          <mxGeometry x="1080" y="962" width="20" height="20" as="geometry" />
        </mxCell>
        <mxCell id="pZX7AurCq85WZI0tsNrJ-310" value="" style="edgeStyle=orthogonalEdgeStyle;rounded=0;orthogonalLoop=1;jettySize=auto;html=1;" edge="1" parent="WIyWlLk6GJQsqaUBKTNV-1" source="pZX7AurCq85WZI0tsNrJ-209" target="pZX7AurCq85WZI0tsNrJ-190">
          <mxGeometry relative="1" as="geometry" />
        </mxCell>
        <mxCell id="pZX7AurCq85WZI0tsNrJ-311" value="1" style="text;html=1;align=center;verticalAlign=middle;resizable=0;points=[];autosize=1;strokeColor=none;fillColor=none;" vertex="1" parent="WIyWlLk6GJQsqaUBKTNV-1">
          <mxGeometry x="1185" y="948" width="30" height="30" as="geometry" />
        </mxCell>
        <mxCell id="pZX7AurCq85WZI0tsNrJ-312" value="0..*" style="text;html=1;align=center;verticalAlign=middle;resizable=0;points=[];autosize=1;strokeColor=none;fillColor=none;" vertex="1" parent="WIyWlLk6GJQsqaUBKTNV-1">
          <mxGeometry x="950" y="948" width="40" height="30" as="geometry" />
        </mxCell>
        <mxCell id="pZX7AurCq85WZI0tsNrJ-313" value="0..*" style="text;html=1;align=center;verticalAlign=middle;resizable=0;points=[];autosize=1;strokeColor=none;fillColor=none;" vertex="1" parent="WIyWlLk6GJQsqaUBKTNV-1">
          <mxGeometry x="970" y="308" width="40" height="30" as="geometry" />
        </mxCell>
        <mxCell id="pZX7AurCq85WZI0tsNrJ-319" value="Faire&lt;br&gt;" style="text;html=1;align=center;verticalAlign=middle;resizable=0;points=[];autosize=1;strokeColor=none;fillColor=none;" vertex="1" parent="WIyWlLk6GJQsqaUBKTNV-1">
          <mxGeometry x="1063" y="938" width="50" height="30" as="geometry" />
        </mxCell>
        <mxCell id="pZX7AurCq85WZI0tsNrJ-321" value="0..*" style="text;html=1;align=center;verticalAlign=middle;resizable=0;points=[];autosize=1;strokeColor=none;fillColor=none;" vertex="1" parent="WIyWlLk6GJQsqaUBKTNV-1">
          <mxGeometry x="1180" y="698" width="40" height="30" as="geometry" />
        </mxCell>
        <mxCell id="pZX7AurCq85WZI0tsNrJ-322" value="1" style="text;html=1;align=center;verticalAlign=middle;resizable=0;points=[];autosize=1;strokeColor=none;fillColor=none;" vertex="1" parent="WIyWlLk6GJQsqaUBKTNV-1">
          <mxGeometry x="955" y="758" width="30" height="30" as="geometry" />
        </mxCell>
        <mxCell id="pZX7AurCq85WZI0tsNrJ-324" value="0..*" style="text;html=1;align=center;verticalAlign=middle;resizable=0;points=[];autosize=1;strokeColor=none;fillColor=none;" vertex="1" parent="WIyWlLk6GJQsqaUBKTNV-1">
          <mxGeometry x="400" y="808" width="40" height="30" as="geometry" />
        </mxCell>
        <mxCell id="pZX7AurCq85WZI0tsNrJ-325" value="1" style="text;html=1;align=center;verticalAlign=middle;resizable=0;points=[];autosize=1;strokeColor=none;fillColor=none;" vertex="1" parent="WIyWlLk6GJQsqaUBKTNV-1">
          <mxGeometry x="305" y="808" width="30" height="30" as="geometry" />
        </mxCell>
        <mxCell id="pZX7AurCq85WZI0tsNrJ-326" value="1..*" style="text;html=1;align=center;verticalAlign=middle;resizable=0;points=[];autosize=1;strokeColor=none;fillColor=none;" vertex="1" parent="WIyWlLk6GJQsqaUBKTNV-1">
          <mxGeometry x="630" y="418" width="40" height="30" as="geometry" />
        </mxCell>
        <mxCell id="pZX7AurCq85WZI0tsNrJ-327" value="1" style="text;html=1;align=center;verticalAlign=middle;resizable=0;points=[];autosize=1;strokeColor=none;fillColor=none;" vertex="1" parent="WIyWlLk6GJQsqaUBKTNV-1">
          <mxGeometry x="745" y="658" width="30" height="30" as="geometry" />
        </mxCell>
        <mxCell id="pZX7AurCq85WZI0tsNrJ-328" value="1" style="text;html=1;align=center;verticalAlign=middle;resizable=0;points=[];autosize=1;strokeColor=none;fillColor=none;" vertex="1" parent="WIyWlLk6GJQsqaUBKTNV-1">
          <mxGeometry x="955" y="628" width="30" height="30" as="geometry" />
        </mxCell>
        <mxCell id="pZX7AurCq85WZI0tsNrJ-329" value="1..*" style="text;html=1;align=center;verticalAlign=middle;resizable=0;points=[];autosize=1;strokeColor=none;fillColor=none;" vertex="1" parent="WIyWlLk6GJQsqaUBKTNV-1">
          <mxGeometry x="1080" y="448" width="40" height="30" as="geometry" />
        </mxCell>
        <mxCell id="pZX7AurCq85WZI0tsNrJ-330" value="0.1" style="text;html=1;align=center;verticalAlign=middle;resizable=0;points=[];autosize=1;strokeColor=none;fillColor=none;" vertex="1" parent="WIyWlLk6GJQsqaUBKTNV-1">
          <mxGeometry x="740" y="1278" width="40" height="30" as="geometry" />
        </mxCell>
        <mxCell id="pZX7AurCq85WZI0tsNrJ-331" value="1" style="text;html=1;align=center;verticalAlign=middle;resizable=0;points=[];autosize=1;strokeColor=none;fillColor=none;" vertex="1" parent="WIyWlLk6GJQsqaUBKTNV-1">
          <mxGeometry x="745" y="1028" width="30" height="30" as="geometry" />
        </mxCell>
        <mxCell id="pZX7AurCq85WZI0tsNrJ-332" value="Avoir" style="text;html=1;align=center;verticalAlign=middle;resizable=0;points=[];autosize=1;strokeColor=none;fillColor=none;" vertex="1" parent="WIyWlLk6GJQsqaUBKTNV-1">
          <mxGeometry x="680" y="788" width="50" height="30" as="geometry" />
        </mxCell>
        <mxCell id="pZX7AurCq85WZI0tsNrJ-333" value="0..1" style="text;html=1;align=center;verticalAlign=middle;resizable=0;points=[];autosize=1;strokeColor=none;fillColor=none;" vertex="1" parent="WIyWlLk6GJQsqaUBKTNV-1">
          <mxGeometry x="620" y="788" width="40" height="30" as="geometry" />
        </mxCell>
        <mxCell id="pZX7AurCq85WZI0tsNrJ-334" value="1" style="text;html=1;align=center;verticalAlign=middle;resizable=0;points=[];autosize=1;strokeColor=none;fillColor=none;" vertex="1" parent="WIyWlLk6GJQsqaUBKTNV-1">
          <mxGeometry x="745" y="838" width="30" height="30" as="geometry" />
        </mxCell>
        <mxCell id="pZX7AurCq85WZI0tsNrJ-335" value="1" style="text;html=1;align=center;verticalAlign=middle;resizable=0;points=[];autosize=1;strokeColor=none;fillColor=none;" vertex="1" parent="WIyWlLk6GJQsqaUBKTNV-1">
          <mxGeometry x="735" y="898" width="30" height="30" as="geometry" />
        </mxCell>
        <mxCell id="pZX7AurCq85WZI0tsNrJ-336" value="0..*" style="text;html=1;align=center;verticalAlign=middle;resizable=0;points=[];autosize=1;strokeColor=none;fillColor=none;" vertex="1" parent="WIyWlLk6GJQsqaUBKTNV-1">
          <mxGeometry x="490" y="1228" width="40" height="30" as="geometry" />
        </mxCell>
        <mxCell id="ZszFNPg7Wxjrjmb0B0mY-0" value="&lt;font style=&quot;font-size: 16px;&quot;&gt;&lt;b&gt;&lt;u&gt;Diagramme de classe : Système de reservation&amp;nbsp;&lt;/u&gt;&lt;/b&gt;&lt;/font&gt;" style="text;html=1;align=center;verticalAlign=middle;resizable=0;points=[];autosize=1;strokeColor=none;fillColor=none;" vertex="1" parent="WIyWlLk6GJQsqaUBKTNV-1">
          <mxGeometry x="45" y="68" width="390" height="30" as="geometry" />
        </mxCell>
      </root>
    </mxGraphModel>
  </diagram>
</mxfile>
